M48
; DRILL file {KiCad (7.0.0-0)} date Monday, May 01, 2023 at 01:27:57 PM
; FORMAT={-:-/ absolute / metric / decimal}
; #@! TF.CreationDate,2023-05-01T13:27:57-07:00
; #@! TF.GenerationSoftware,Kicad,Pcbnew,(7.0.0-0)
; #@! TF.FileFunction,Plated,1,2,PTH
FMAT,2
METRIC
; #@! TA.AperFunction,Plated,PTH,ComponentDrill
T1C0.250
; #@! TA.AperFunction,Plated,PTH,ViaDrill
T2C0.400
; #@! TA.AperFunction,Plated,PTH,ComponentDrill
T3C0.400
; #@! TA.AperFunction,Plated,PTH,ComponentDrill
T4C1.000
%
G90
G05
T1
X-7.475Y22.85
X-7.475Y3.8
X-7.475Y-15.25
X-6.706Y12.719
X-6.706Y-6.331
X-6.706Y-25.381
X-0.0Y27.275
X-0.0Y8.225
X-0.0Y-10.825
X7.122Y-44.016
X8.771Y-54.042
X11.575Y17.85
X11.575Y-1.2
X11.575Y-20.25
X12.344Y7.719
X12.344Y-11.331
X12.344Y-30.381
X14.183Y-38.956
X19.05Y22.275
X19.05Y3.225
X19.05Y-15.825
X29.197Y-53.22
X30.198Y-43.11
X30.625Y15.85
X30.625Y-3.2
X30.625Y-22.25
X31.394Y5.719
X31.394Y-13.331
X31.394Y-32.381
X38.1Y20.275
X38.1Y1.225
X38.1Y-17.825
X38.328Y-40.05
X49.147Y-58.054
X52.731Y-48.547
X61.376Y-47.696
X62.085Y15.189
X62.085Y1.6
T2
X62.085Y1.6
X65.535Y1.075
T4
X53.135Y21.43
X53.135Y18.89
X53.135Y16.35
X53.135Y13.81
X53.135Y11.27
X53.135Y8.73
X53.135Y6.19
X53.135Y3.65
X53.135Y1.11
X53.135Y-1.43
X53.135Y-3.97
X53.135Y-6.51
X53.135Y-9.05
X53.135Y-11.59
X53.135Y-14.13
X53.135Y-16.67
X53.135Y-19.21
X53.135Y-21.75
X53.135Y-24.29
X53.135Y-26.83
X55.795Y21.45
X55.795Y18.91
X55.795Y16.37
X55.795Y13.83
X55.795Y11.29
X55.795Y8.75
X55.795Y6.21
X55.795Y3.67
X55.795Y1.13
X55.795Y-1.41
X55.795Y-3.95
X55.795Y-6.49
X55.795Y-9.03
X55.795Y-11.57
X55.795Y-14.11
X55.795Y-16.65
X55.795Y-19.19
X55.795Y-21.73
X55.795Y-24.27
X55.795Y-26.81
X68.375Y21.43
X68.375Y18.89
X68.375Y16.35
X68.375Y13.81
X68.375Y11.27
X68.375Y8.73
X68.375Y6.19
X68.375Y3.65
X68.375Y1.11
X68.375Y-1.43
X68.375Y-3.97
X68.375Y-6.51
X68.375Y-9.05
X68.375Y-11.59
X68.375Y-14.13
X68.375Y-16.67
X68.375Y-19.21
X68.375Y-21.75
X68.375Y-24.29
X68.375Y-26.83
X71.035Y21.45
X71.035Y18.91
X71.035Y16.37
X71.035Y13.83
X71.035Y11.29
X71.035Y8.75
X71.035Y6.21
X71.035Y3.67
X71.035Y1.13
X71.035Y-1.41
X71.035Y-3.95
X71.035Y-6.49
X71.035Y-9.03
X71.035Y-11.57
X71.035Y-14.11
X71.035Y-16.65
X71.035Y-19.19
X71.035Y-21.73
X71.035Y-24.27
X71.035Y-26.81
T3
X-5.3Y15.15G85X-4.7Y15.15
G05
X-5.3Y-3.9G85X-4.7Y-3.9
G05
X-5.3Y-22.95G85X-4.7Y-22.95
G05
X-4.4Y14.05G85X-4.4Y14.65
G05
X-4.4Y-5.0G85X-4.4Y-4.4
G05
X-4.4Y-24.05G85X-4.4Y-23.45
G05
X-3.51Y15.7G85X-4.46Y15.7
G05
X-3.51Y-3.35G85X-4.46Y-3.35
G05
X-3.51Y-22.4G85X-4.46Y-22.4
G05
X-3.51Y16.51G85X-4.11Y16.51
G05
X-3.51Y-2.54G85X-4.11Y-2.54
G05
X-3.51Y-21.59G85X-4.11Y-21.59
G05
X-2.3Y13.3G85X-2.9Y13.3
G05
X-2.3Y-5.75G85X-2.9Y-5.75
G05
X-2.3Y-24.8G85X-2.9Y-24.8
G05
X-2.24Y13.97G85X-2.84Y13.97
G05
X-2.24Y-5.08G85X-2.84Y-5.08
G05
X-2.24Y-24.13G85X-2.84Y-24.13
G05
X-0.3Y13.1G85X0.3Y13.1
G05
X-0.3Y-5.95G85X0.3Y-5.95
G05
X-0.3Y-25.0G85X0.3Y-25.0
G05
X2.84Y13.97G85X2.24Y13.97
G05
X2.84Y-5.08G85X2.24Y-5.08
G05
X2.84Y-24.13G85X2.24Y-24.13
G05
X2.9Y13.3G85X2.3Y13.3
G05
X2.9Y-5.75G85X2.3Y-5.75
G05
X2.9Y-24.8G85X2.3Y-24.8
G05
X4.11Y16.51G85X3.51Y16.51
G05
X4.11Y-2.54G85X3.51Y-2.54
G05
X4.11Y-21.59G85X3.51Y-21.59
G05
X4.46Y15.7G85X3.51Y15.7
G05
X4.46Y-3.35G85X3.51Y-3.35
G05
X4.46Y-22.4G85X3.51Y-22.4
G05
X4.4Y14.05G85X4.4Y14.65
G05
X4.4Y-5.0G85X4.4Y-4.4
G05
X4.4Y-24.05G85X4.4Y-23.45
G05
X4.7Y15.15G85X5.3Y15.15
G05
X4.7Y-3.9G85X5.3Y-3.9
G05
X4.7Y-22.95G85X5.3Y-22.95
G05
X9.96Y-51.497G85X10.558Y-51.445
G05
X10.953Y-52.514G85X10.9Y-51.917
G05
X11.695Y-50.793G85X10.749Y-50.876
G05
X11.625Y-49.986G85X11.027Y-50.039
G05
X13.11Y-53.079G85X12.512Y-53.131
G05
X13.111Y-52.406G85X12.514Y-52.458
G05
X13.75Y10.15G85X14.35Y10.15
G05
X13.75Y-8.9G85X14.35Y-8.9
G05
X13.75Y-27.95G85X14.35Y-27.95
G05
X14.65Y9.05G85X14.65Y9.65
G05
X14.65Y-10.0G85X14.65Y-9.4
G05
X14.65Y-29.05G85X14.65Y-28.45
G05
X15.54Y10.7G85X14.59Y10.7
G05
X15.54Y-8.35G85X14.59Y-8.35
G05
X15.54Y-27.4G85X14.59Y-27.4
G05
X15.54Y11.51G85X14.94Y11.51
G05
X15.54Y-7.54G85X14.94Y-7.54
G05
X15.54Y-26.59G85X14.94Y-26.59
G05
X15.12Y-53.104G85X15.717Y-53.051
G05
X16.75Y8.3G85X16.15Y8.3
G05
X16.75Y-10.75G85X16.15Y-10.75
G05
X16.75Y-29.8G85X16.15Y-29.8
G05
X16.81Y8.97G85X16.21Y8.97
G05
X16.81Y-10.08G85X16.21Y-10.08
G05
X16.81Y-29.13G85X16.21Y-29.13
G05
X18.172Y-51.963G85X17.574Y-52.015
G05
X18.29Y-52.625G85X17.692Y-52.678
G05
X19.216Y-49.322G85X18.618Y-49.374
G05
X18.75Y8.1G85X19.35Y8.1
G05
X18.75Y-10.95G85X19.35Y-10.95
G05
X18.75Y-30.0G85X19.35Y-30.0
G05
X19.635Y-50.099G85X18.689Y-50.181
G05
X19.719Y-51.747G85X19.667Y-51.15
G05
X19.922Y-50.626G85X20.52Y-50.573
G05
X21.89Y8.97G85X21.29Y8.97
G05
X21.89Y-10.08G85X21.29Y-10.08
G05
X21.89Y-29.13G85X21.29Y-29.13
G05
X21.95Y8.3G85X21.35Y8.3
G05
X21.95Y-10.75G85X21.35Y-10.75
G05
X21.95Y-29.8G85X21.35Y-29.8
G05
X23.16Y11.51G85X22.56Y11.51
G05
X23.16Y-7.54G85X22.56Y-7.54
G05
X23.16Y-26.59G85X22.56Y-26.59
G05
X23.51Y10.7G85X22.56Y10.7
G05
X23.51Y-8.35G85X22.56Y-8.35
G05
X23.51Y-27.4G85X22.56Y-27.4
G05
X23.45Y9.05G85X23.45Y9.65
G05
X23.45Y-10.0G85X23.45Y-9.4
G05
X23.45Y-29.05G85X23.45Y-28.45
G05
X23.75Y10.15G85X24.35Y10.15
G05
X23.75Y-8.9G85X24.35Y-8.9
G05
X23.75Y-27.95G85X24.35Y-27.95
G05
X31.003Y-51.07G85X31.594Y-51.175
G05
X31.699Y-52.31G85X31.803Y-51.719
G05
X32.862Y-50.84G85X31.926Y-50.675
G05
X33.002Y-50.042G85X32.411Y-49.938
G05
X32.8Y8.15G85X33.4Y8.15
G05
X32.8Y-10.9G85X33.4Y-10.9
G05
X32.8Y-29.95G85X33.4Y-29.95
G05
X33.636Y-53.413G85X33.046Y-53.309
G05
X33.812Y-52.764G85X33.221Y-52.66
G05
X33.7Y7.05G85X33.7Y7.65
G05
X33.7Y-12.0G85X33.7Y-11.4
G05
X33.7Y-31.05G85X33.7Y-30.45
G05
X34.59Y8.7G85X33.64Y8.7
G05
X34.59Y-10.35G85X33.64Y-10.35
G05
X34.59Y-29.4G85X33.64Y-29.4
G05
X34.59Y9.51G85X33.99Y9.51
G05
X34.59Y-9.54G85X33.99Y-9.54
G05
X34.59Y-28.59G85X33.99Y-28.59
G05
X35.8Y6.3G85X35.2Y6.3
G05
X35.8Y-12.75G85X35.2Y-12.75
G05
X35.8Y-31.8G85X35.2Y-31.8
G05
X35.86Y6.97G85X35.26Y6.97
G05
X35.86Y-12.08G85X35.26Y-12.08
G05
X35.86Y-31.13G85X35.26Y-31.13
G05
X35.571Y-53.958G85X36.162Y-54.062
G05
X37.8Y6.1G85X38.4Y6.1
G05
X37.8Y-12.95G85X38.4Y-12.95
G05
X37.8Y-32.0G85X38.4Y-32.0
G05
X38.757Y-54.316G85X38.167Y-54.212
G05
X38.815Y-53.646G85X38.224Y-53.542
G05
X40.506Y-51.365G85X39.916Y-51.261
G05
X40.711Y-52.224G85X39.775Y-52.059
G05
X40.365Y-53.838G85X40.469Y-53.247
G05
X40.94Y6.97G85X40.34Y6.97
G05
X40.94Y-12.08G85X40.34Y-12.08
G05
X40.94Y-31.13G85X40.34Y-31.13
G05
X41.0Y6.3G85X40.4Y6.3
G05
X41.0Y-12.75G85X40.4Y-12.75
G05
X41.0Y-31.8G85X40.4Y-31.8
G05
X40.851Y-52.807G85X41.442Y-52.911
G05
X42.21Y9.51G85X41.61Y9.51
G05
X42.21Y-9.54G85X41.61Y-9.54
G05
X42.21Y-28.59G85X41.61Y-28.59
G05
X42.56Y8.7G85X41.61Y8.7
G05
X42.56Y-10.35G85X41.61Y-10.35
G05
X42.56Y-29.4G85X41.61Y-29.4
G05
X42.5Y7.05G85X42.5Y7.65
G05
X42.5Y-12.0G85X42.5Y-11.4
G05
X42.5Y-31.05G85X42.5Y-30.45
G05
X42.8Y8.15G85X43.4Y8.15
G05
X42.8Y-10.9G85X43.4Y-10.9
G05
X42.8Y-29.95G85X43.4Y-29.95
G05
X51.448Y-56.445G85X51.992Y-56.698
G05
X51.799Y-57.822G85X52.053Y-57.278
G05
X53.303Y-56.703G85X52.442Y-56.301
G05
X53.385Y-59.389G85X52.842Y-59.136
G05
X53.645Y-55.969G85X53.102Y-55.715
G05
X53.723Y-58.807G85X53.179Y-58.554
G05
X55.114Y-60.416G85X55.657Y-60.669
G05
X58.098Y-61.587G85X57.554Y-61.333
G05
X58.327Y-60.954G85X57.783Y-60.701
G05
X59.775Y-61.541G85X60.028Y-60.997
G05
X60.526Y-60.071G85X59.665Y-59.67
G05
X60.551Y-59.189G85X60.008Y-58.935
G05
X60.511Y-60.671G85X61.055Y-60.924
G05
T4
X63.41Y-33.97G85X62.91Y-33.97
G05
X63.41Y-36.42G85X62.91Y-36.42
G05
X64.91Y-32.22G85X64.41Y-32.22
G05
X64.91Y-38.17G85X64.41Y-38.17
G05
X68.91Y-32.22G85X68.41Y-32.22
G05
X68.91Y-38.17G85X68.41Y-38.17
G05
X71.91Y-32.22G85X71.41Y-32.22
G05
X71.91Y-38.17G85X71.41Y-38.17
G05
T0
M30
