%TF.GenerationSoftware,KiCad,Pcbnew,(7.0.0-0)*%
%TF.CreationDate,2023-05-01T13:28:00-07:00*%
%TF.ProjectId,cantor-master-key,63616e74-6f72-42d6-9d61-737465722d6b,rev1.0*%
%TF.SameCoordinates,PX78114e0PY44b6550*%
%TF.FileFunction,Soldermask,Bot*%
%TF.FilePolarity,Negative*%
%FSLAX46Y46*%
G04 Gerber Fmt 4.6, Leading zero omitted, Abs format (unit mm)*
G04 Created by KiCad (PCBNEW (7.0.0-0)) date 2023-05-01 13:28:00*
%MOMM*%
%LPD*%
G01*
G04 APERTURE LIST*
G04 Aperture macros list*
%AMHorizOval*
0 Thick line with rounded ends*
0 $1 width*
0 $2 $3 position (X,Y) of the first rounded end (center of the circle)*
0 $4 $5 position (X,Y) of the second rounded end (center of the circle)*
0 Add line between two ends*
20,1,$1,$2,$3,$4,$5,0*
0 Add two circle primitives to create the rounded ends*
1,1,$1,$2,$3*
1,1,$1,$4,$5*%
%AMFreePoly0*
4,1,28,-1.000000,0.000000,-0.988573,0.106283,-0.938839,0.239624,-0.853553,0.353553,-0.739624,0.438839,-0.606283,0.488573,-0.500000,0.500000,0.500000,0.500000,0.606283,0.488573,0.739624,0.438839,0.853553,0.353553,0.938839,0.239624,0.988573,0.106283,1.000000,0.000000,0.988573,-0.106283,0.938839,-0.239624,0.853553,-0.353553,0.739624,-0.438839,0.606283,-0.488573,0.500000,-0.500000,
-0.500000,-0.500000,-0.606283,-0.488573,-0.739624,-0.438839,-0.853553,-0.353553,-0.938839,-0.239624,-0.988573,-0.106283,-1.000000,0.000000,-1.000000,0.000000,-1.000000,0.000000,$1*%
%AMFreePoly1*
4,1,22,-1.400000,0.000000,-0.350000,1.050000,0.350000,1.050000,0.554845,1.029825,0.751818,0.970074,0.933349,0.873043,1.092462,0.742462,1.223043,0.583349,1.320074,0.401818,1.379825,0.204845,1.400000,0.000000,0.350000,-1.050000,-0.350000,-1.050000,-0.554845,-1.029825,-0.751818,-0.970074,-0.933349,-0.873043,-1.092462,-0.742462,-1.223043,-0.583349,-1.320074,-0.401818,-1.379825,-0.204845,
-1.400000,0.000000,-1.400000,0.000000,-1.400000,0.000000,$1*%
%AMFreePoly2*
4,1,28,-0.900000,0.000000,-0.888920,0.140791,-0.840222,0.322531,-0.754804,0.490175,-0.636396,0.636396,-0.490175,0.754804,-0.322531,0.840222,-0.140791,0.888920,0.000000,0.900000,0.900000,0.900000,0.900000,0.000000,0.888920,-0.140791,0.840222,-0.322531,0.754804,-0.490175,0.636396,-0.636396,0.490175,-0.754804,0.322531,-0.840222,0.140791,-0.888920,0.000000,-0.900000,-0.140791,-0.888920,
-0.322531,-0.840222,-0.490175,-0.754804,-0.636396,-0.636396,-0.754804,-0.490175,-0.840222,-0.322531,-0.888920,-0.140791,-0.900000,0.000000,-0.900000,0.000000,-0.900000,0.000000,$1*%
%AMFreePoly3*
4,1,22,-1.400000,0.000000,-1.379825,0.204845,-1.320074,0.401818,-1.223043,0.583349,-1.092462,0.742462,-0.933349,0.873043,-0.751818,0.970074,-0.554845,1.029825,-0.350000,1.050000,0.350000,1.050000,1.400000,0.000000,1.379825,-0.204845,1.320074,-0.401818,1.223043,-0.583349,1.092462,-0.742462,0.933349,-0.873043,0.751818,-0.970074,0.554845,-1.029825,0.350000,-1.050000,-0.350000,-1.050000,
-1.400000,0.000000,-1.400000,0.000000,-1.400000,0.000000,$1*%
%AMFreePoly4*
4,1,17,-0.900000,0.000000,-0.879555,0.155291,-0.819615,0.300000,-0.724264,0.424264,-0.600000,0.519615,-0.455291,0.579555,-0.300000,0.600000,0.900000,0.600000,0.900000,-0.600000,-0.300000,-0.600000,-0.455291,-0.579555,-0.600000,-0.519615,-0.724264,-0.424264,-0.819615,-0.300000,-0.879555,-0.155291,-0.900000,0.000000,-0.900000,0.000000,-0.900000,0.000000,$1*%
%AMFreePoly5*
4,1,13,-1.000000,1.100000,0.760000,1.100000,0.851844,1.081731,0.929706,1.029706,0.981731,0.951844,1.000000,0.860000,1.000000,-0.860000,0.981731,-0.951844,0.929706,-1.029706,0.851844,-1.081731,0.760000,-1.100000,-1.000000,-1.100000,-1.000000,1.100000,-1.000000,1.100000,$1*%
%AMFreePoly6*
4,1,18,-1.000000,0.860000,-0.981731,0.951844,-0.929706,1.029706,-0.851844,1.081731,-0.760000,1.100000,0.760000,1.100000,0.851844,1.081731,0.929706,1.029706,0.981731,0.951844,1.000000,0.860000,1.000000,-0.860000,0.981731,-0.951844,0.929706,-1.029706,0.851844,-1.081731,0.760000,-1.100000,-0.500000,-1.100000,-1.000000,-0.600000,-1.000000,0.860000,-1.000000,0.860000,$1*%
%AMFreePoly7*
4,1,21,-0.800000,0.675000,-0.725000,0.750000,0.725000,0.750000,0.800000,0.675000,0.800000,0.000000,0.784505,-0.151663,0.729731,-0.316964,0.638312,-0.465177,0.515177,-0.588312,0.366964,-0.679731,0.201663,-0.734505,0.050000,-0.750000,-0.050000,-0.750000,-0.201663,-0.734505,-0.366964,-0.679731,-0.515177,-0.588312,-0.638312,-0.465177,-0.729731,-0.316964,-0.784505,-0.151663,-0.800000,0.000000,
-0.800000,0.675000,-0.800000,0.675000,$1*%
%AMFreePoly8*
4,1,28,-0.850000,0.400000,0.000000,1.250000,0.114750,1.242219,0.293119,1.197860,0.457783,1.116195,0.601041,1.001041,0.716195,0.857783,0.797860,0.693119,0.842219,0.514750,0.850000,0.400000,0.850000,-0.400000,0.842219,-0.514750,0.797860,-0.693119,0.716195,-0.857783,0.601041,-1.001041,0.457783,-1.116195,0.293119,-1.197860,0.114750,-1.242219,0.000000,-1.250000,-0.114750,-1.242219,
-0.293119,-1.197860,-0.457783,-1.116195,-0.601041,-1.001041,-0.716195,-0.857783,-0.797860,-0.693119,-0.842219,-0.514750,-0.850000,-0.400000,-0.850000,0.400000,-0.850000,0.400000,$1*%
%AMFreePoly9*
4,1,28,-0.850000,0.400000,-0.842219,0.514750,-0.797860,0.693119,-0.716195,0.857783,-0.601041,1.001041,-0.457783,1.116195,-0.293119,1.197860,-0.114750,1.242219,0.000000,1.250000,0.114750,1.242219,0.293119,1.197860,0.457783,1.116195,0.601041,1.001041,0.716195,0.857783,0.797860,0.693119,0.842219,0.514750,0.850000,0.400000,0.850000,-0.400000,0.842219,-0.514750,0.797860,-0.693119,
0.716195,-0.857783,0.601041,-1.001041,0.457783,-1.116195,0.293119,-1.197860,0.114750,-1.242219,0.000000,-1.250000,-0.850000,-0.400000,-0.850000,0.400000,-0.850000,0.400000,$1*%
G04 Aperture macros list end*
%ADD10HorizOval,0.400000X0.299989X0.002618X-0.299989X-0.002618X0*%
%ADD11C,1.800000*%
%ADD12C,1.700000*%
%ADD13C,3.000000*%
%ADD14C,4.800000*%
%ADD15C,6.400000*%
%ADD16C,2.300000*%
%ADD17FreePoly0,0.500000*%
%ADD18FreePoly1,180.000000*%
%ADD19FreePoly2,180.000000*%
%ADD20FreePoly3,180.000000*%
%ADD21FreePoly4,90.000000*%
%ADD22O,1.800000X1.200000*%
%ADD23FreePoly5,0.000000*%
%ADD24FreePoly6,0.000000*%
%ADD25C,1.600000*%
%ADD26FreePoly7,180.000000*%
%ADD27HorizOval,0.400000X0.298619X0.028754X-0.298619X-0.028754X0*%
%ADD28FreePoly0,5.500000*%
%ADD29FreePoly1,185.000000*%
%ADD30FreePoly2,185.000000*%
%ADD31FreePoly3,185.000000*%
%ADD32FreePoly4,95.000000*%
%ADD33HorizOval,1.200000X0.298858X0.026147X-0.298858X-0.026147X0*%
%ADD34FreePoly5,5.000000*%
%ADD35FreePoly6,5.000000*%
%ADD36FreePoly7,185.000000*%
%ADD37C,1.200000*%
%ADD38FreePoly8,270.000000*%
%ADD39FreePoly9,270.000000*%
%ADD40O,2.500000X1.700000*%
%ADD41C,0.400000*%
%ADD42R,1.955800X2.311400*%
%ADD43HorizOval,0.400000X0.272988X-0.124408X-0.272988X0.124408X0*%
%ADD44FreePoly0,335.500000*%
%ADD45FreePoly1,155.000000*%
%ADD46FreePoly2,155.000000*%
%ADD47FreePoly3,155.000000*%
%ADD48FreePoly4,65.000000*%
%ADD49HorizOval,1.200000X0.271892X-0.126785X-0.271892X0.126785X0*%
%ADD50FreePoly5,335.000000*%
%ADD51FreePoly6,335.000000*%
%ADD52FreePoly7,155.000000*%
%ADD53R,1.700000X1.700000*%
%ADD54HorizOval,0.400000X0.295886X-0.049514X-0.295886X0.049514X0*%
%ADD55FreePoly0,350.500000*%
%ADD56FreePoly1,170.000000*%
%ADD57FreePoly2,170.000000*%
%ADD58FreePoly3,170.000000*%
%ADD59FreePoly4,80.000000*%
%ADD60HorizOval,1.200000X0.295442X-0.052094X-0.295442X0.052094X0*%
%ADD61FreePoly5,350.000000*%
%ADD62FreePoly6,350.000000*%
%ADD63FreePoly7,170.000000*%
%TA.AperFunction,Profile*%
%ADD64C,0.100000*%
%TD*%
%TA.AperFunction,Profile*%
%ADD65C,0.120000*%
%TD*%
G04 APERTURE END LIST*
D10*
%TO.C,K25*%
X32549999Y-31599999D03*
D11*
X32600000Y-26050000D03*
D12*
X33020000Y-26050000D03*
D13*
X33100000Y-22350000D03*
X38100000Y-20150000D03*
D14*
X38100000Y-26050000D03*
D15*
X38100000Y-26050000D03*
D16*
X38100000Y-29800000D03*
D13*
X43100000Y-22350000D03*
D12*
X43180000Y-26050000D03*
D11*
X43600000Y-26050000D03*
D17*
X43646072Y-20050016D03*
D18*
X33789999Y-29499999D03*
D19*
X41909999Y-28589999D03*
D20*
X42409999Y-29499999D03*
D21*
X42499999Y-30749999D03*
D22*
X43099999Y-29949999D03*
D23*
X46374999Y-22349999D03*
D24*
X35099999Y-20149999D03*
D25*
X35500000Y-31800000D03*
D26*
X35499999Y-31129999D03*
D25*
X38100000Y-32000000D03*
%TD*%
D10*
%TO.C,K24*%
X13499999Y-29599999D03*
D11*
X13550000Y-24050000D03*
D12*
X13970000Y-24050000D03*
D13*
X14050000Y-20350000D03*
X19050000Y-18150000D03*
D14*
X19050000Y-24050000D03*
D15*
X19050000Y-24050000D03*
D16*
X19050000Y-27800000D03*
D13*
X24050000Y-20350000D03*
D12*
X24130000Y-24050000D03*
D11*
X24550000Y-24050000D03*
D17*
X24596072Y-18050016D03*
D18*
X14739999Y-27499999D03*
D19*
X22859999Y-26589999D03*
D20*
X23359999Y-27499999D03*
D21*
X23449999Y-28749999D03*
D22*
X24049999Y-27949999D03*
D23*
X27324999Y-20349999D03*
D24*
X16049999Y-18149999D03*
D25*
X16450000Y-29800000D03*
D26*
X16449999Y-29129999D03*
D25*
X19050000Y-30000000D03*
%TD*%
D10*
%TO.C,K04*%
X13499999Y8499999D03*
D11*
X13550000Y14050000D03*
D12*
X13970000Y14050000D03*
D13*
X14050000Y17750000D03*
X19050000Y19950000D03*
D14*
X19050000Y14050000D03*
D15*
X19050000Y14050000D03*
D16*
X19050000Y10300000D03*
D13*
X24050000Y17750000D03*
D12*
X24130000Y14050000D03*
D11*
X24550000Y14050000D03*
D17*
X24596072Y20049982D03*
D18*
X14739999Y10599999D03*
D19*
X22859999Y11509999D03*
D20*
X23359999Y10599999D03*
D21*
X23449999Y9349999D03*
D22*
X24049999Y10149999D03*
D23*
X27324999Y17749999D03*
D24*
X16049999Y19949999D03*
D25*
X16450000Y8300000D03*
D26*
X16449999Y8969999D03*
D25*
X19050000Y8100000D03*
%TD*%
D27*
%TO.C,K30*%
X9854833Y-53162594D03*
D11*
X9420929Y-47629357D03*
D12*
X9839331Y-47592751D03*
D13*
X9596550Y-43899858D03*
X14385781Y-41272451D03*
D14*
X14900000Y-47150000D03*
D15*
X14900000Y-47150000D03*
D16*
X15226834Y-50885730D03*
D13*
X19558497Y-43028301D03*
D12*
X19960669Y-46707249D03*
D11*
X20379071Y-46670643D03*
D28*
X19902034Y-40689476D03*
D29*
X10907087Y-50962512D03*
D30*
X18916876Y-49348270D03*
D31*
X19494286Y-50211230D03*
D32*
X19692888Y-51448629D03*
D33*
X20220880Y-50599380D03*
D34*
X22821034Y-42742865D03*
D35*
X11397196Y-41533918D03*
D25*
X12811039Y-53104724D03*
D36*
X12752644Y-52437273D03*
D25*
X15418577Y-53077358D03*
%TD*%
D10*
%TO.C,K14*%
X13499999Y-10549999D03*
D11*
X13550000Y-5000000D03*
D12*
X13970000Y-5000000D03*
D13*
X14050000Y-1300000D03*
X19050000Y900000D03*
D14*
X19050000Y-5000000D03*
D15*
X19050000Y-5000000D03*
D16*
X19050000Y-8750000D03*
D13*
X24050000Y-1300000D03*
D12*
X24130000Y-5000000D03*
D11*
X24550000Y-5000000D03*
D17*
X24596072Y999982D03*
D18*
X14739999Y-8449999D03*
D19*
X22859999Y-7539999D03*
D20*
X23359999Y-8449999D03*
D21*
X23449999Y-9699999D03*
D22*
X24049999Y-8899999D03*
D23*
X27324999Y-1299999D03*
D24*
X16049999Y899999D03*
D25*
X16450000Y-10750000D03*
D26*
X16449999Y-10079999D03*
D25*
X19050000Y-10950000D03*
%TD*%
D10*
%TO.C,K23*%
X-5549999Y-24599999D03*
D11*
X-5500000Y-19050000D03*
D12*
X-5080000Y-19050000D03*
D13*
X-5000000Y-15350000D03*
X0Y-13150000D03*
D14*
X0Y-19050000D03*
D15*
X0Y-19050000D03*
D16*
X0Y-22800000D03*
D13*
X5000000Y-15350000D03*
D12*
X5080000Y-19050000D03*
D11*
X5500000Y-19050000D03*
D17*
X5546072Y-13050016D03*
D18*
X-4309999Y-22499999D03*
D19*
X3809999Y-21589999D03*
D20*
X4309999Y-22499999D03*
D21*
X4399999Y-23749999D03*
D22*
X4999999Y-22949999D03*
D23*
X8274999Y-15349999D03*
D24*
X-2999999Y-13149999D03*
D25*
X-2600000Y-24800000D03*
D26*
X-2599999Y-24129999D03*
D25*
X0Y-25000000D03*
%TD*%
D10*
%TO.C,K03*%
X-5549999Y13499999D03*
D11*
X-5500000Y19050000D03*
D12*
X-5080000Y19050000D03*
D13*
X-5000000Y22750000D03*
X0Y24950000D03*
D14*
X0Y19050000D03*
D15*
X0Y19050000D03*
D16*
X0Y15300000D03*
D13*
X5000000Y22750000D03*
D12*
X5080000Y19050000D03*
D11*
X5500000Y19050000D03*
D17*
X5546072Y25049982D03*
D18*
X-4309999Y15599999D03*
D19*
X3809999Y16509999D03*
D20*
X4309999Y15599999D03*
D21*
X4399999Y14349999D03*
D22*
X4999999Y15149999D03*
D23*
X8274999Y22749999D03*
D24*
X-2999999Y24949999D03*
D25*
X-2600000Y13300000D03*
D26*
X-2599999Y13969999D03*
D25*
X0Y13100000D03*
%TD*%
D37*
%TO.C,J1*%
X73460000Y-34320000D03*
X66460000Y-34320000D03*
X73460000Y-36070000D03*
X66460000Y-36070000D03*
D38*
X63159999Y-33969999D03*
D39*
X64659999Y-38169999D03*
D40*
X68659999Y-38169999D03*
X71659999Y-38169999D03*
%TD*%
D41*
%TO.C,LS1*%
X62085000Y15189000D03*
D42*
X62084999Y15188999D03*
D41*
X62085000Y1600000D03*
D42*
X62084999Y1599999D03*
%TD*%
D10*
%TO.C,K15*%
X32549999Y-12549999D03*
D11*
X32600000Y-7000000D03*
D12*
X33020000Y-7000000D03*
D13*
X33100000Y-3300000D03*
X38100000Y-1100000D03*
D14*
X38100000Y-7000000D03*
D15*
X38100000Y-7000000D03*
D16*
X38100000Y-10750000D03*
D13*
X43100000Y-3300000D03*
D12*
X43180000Y-7000000D03*
D11*
X43600000Y-7000000D03*
D17*
X43646072Y-1000016D03*
D18*
X33789999Y-10449999D03*
D19*
X41909999Y-9539999D03*
D20*
X42409999Y-10449999D03*
D21*
X42499999Y-11699999D03*
D22*
X43099999Y-10899999D03*
D23*
X46374999Y-3299999D03*
D24*
X35099999Y-1099999D03*
D25*
X35500000Y-12750000D03*
D26*
X35499999Y-12079999D03*
D25*
X38100000Y-12950000D03*
%TD*%
D43*
%TO.C,K32*%
X50524459Y-57834476D03*
D11*
X52915307Y-52825600D03*
D12*
X53295956Y-53003099D03*
D13*
X54932149Y-49683570D03*
X60393448Y-49802784D03*
D14*
X57900000Y-55150000D03*
D15*
X57900000Y-55150000D03*
D16*
X56315182Y-58548654D03*
D13*
X63995227Y-53909752D03*
D12*
X62504044Y-57296901D03*
D11*
X62884693Y-57474400D03*
D44*
X65462151Y-52056039D03*
D45*
X52535779Y-56455276D03*
D46*
X60279581Y-59062196D03*
D47*
X60348152Y-60098246D03*
D48*
X59901447Y-61269166D03*
D49*
X60783327Y-60797691D03*
D50*
X66963384Y-55293826D03*
D51*
X57674523Y-48534928D03*
D25*
X53113545Y-59262462D03*
D52*
X53396698Y-58655235D03*
D25*
X55385421Y-60542531D03*
%TD*%
D53*
%TO.C,U1*%
X71034999Y21449999D03*
D12*
X71035000Y18910000D03*
X71035000Y16370000D03*
X71035000Y13830000D03*
X71035000Y11290000D03*
X71035000Y8750000D03*
X71035000Y6210000D03*
X71035000Y3670000D03*
X71035000Y1130000D03*
X71035000Y-1410000D03*
X71035000Y-3950000D03*
X71035000Y-6490000D03*
X71035000Y-9030000D03*
X71035000Y-11570000D03*
X71035000Y-14110000D03*
X71035000Y-16650000D03*
X71035000Y-19190000D03*
X71035000Y-21730000D03*
X71035000Y-24270000D03*
X71035000Y-26810000D03*
X55795000Y-26810000D03*
X55795000Y-24270000D03*
X55795000Y-21730000D03*
X55795000Y-19190000D03*
X55795000Y-16650000D03*
X55795000Y-14110000D03*
X55795000Y-11570000D03*
X55795000Y-9030000D03*
X55795000Y-6490000D03*
X55795000Y-3950000D03*
X55795000Y-1410000D03*
X55795000Y1130000D03*
X55795000Y3670000D03*
X55795000Y6210000D03*
X55795000Y8750000D03*
X55795000Y11290000D03*
X55795000Y13830000D03*
X55795000Y16370000D03*
X55795000Y18910000D03*
X55795000Y21450000D03*
%TD*%
D10*
%TO.C,K05*%
X32549999Y6499999D03*
D11*
X32600000Y12050000D03*
D12*
X33020000Y12050000D03*
D13*
X33100000Y15750000D03*
X38100000Y17950000D03*
D14*
X38100000Y12050000D03*
D15*
X38100000Y12050000D03*
D16*
X38100000Y8300000D03*
D13*
X43100000Y15750000D03*
D12*
X43180000Y12050000D03*
D11*
X43600000Y12050000D03*
D17*
X43646072Y18049982D03*
D18*
X33789999Y8599999D03*
D19*
X41909999Y9509999D03*
D20*
X42409999Y8599999D03*
D21*
X42499999Y7349999D03*
D22*
X43099999Y8149999D03*
D23*
X46374999Y15749999D03*
D24*
X35099999Y17949999D03*
D25*
X35500000Y6300000D03*
D26*
X35499999Y6969999D03*
D25*
X38100000Y6100000D03*
%TD*%
D10*
%TO.C,K13*%
X-5549999Y-5549999D03*
D11*
X-5500000Y0D03*
D12*
X-5080000Y0D03*
D13*
X-5000000Y3700000D03*
X0Y5900000D03*
D14*
X0Y0D03*
D15*
X0Y0D03*
D16*
X0Y-3750000D03*
D13*
X5000000Y3700000D03*
D12*
X5080000Y0D03*
D11*
X5500000Y0D03*
D17*
X5546072Y5999982D03*
D18*
X-4309999Y-3449999D03*
D19*
X3809999Y-2539999D03*
D20*
X4309999Y-3449999D03*
D21*
X4399999Y-4699999D03*
D22*
X4999999Y-3899999D03*
D23*
X8274999Y3699999D03*
D24*
X-2999999Y5899999D03*
D25*
X-2600000Y-5750000D03*
D26*
X-2599999Y-5079999D03*
D25*
X0Y-5950000D03*
%TD*%
D54*
%TO.C,K31*%
X30470569Y-52651935D03*
D11*
X31483557Y-47194935D03*
D12*
X31897177Y-47267867D03*
D13*
X32618459Y-43637970D03*
X37924524Y-42339634D03*
D14*
X36900000Y-48150000D03*
D15*
X36900000Y-48150000D03*
D16*
X36248819Y-51843029D03*
D13*
X42466537Y-45374452D03*
D12*
X41902823Y-49032133D03*
D11*
X42316443Y-49105065D03*
D55*
X43403700Y-43204234D03*
D56*
X32056392Y-50799162D03*
D57*
X40211050Y-51313010D03*
D58*
X40545435Y-52296009D03*
D59*
X40417007Y-53542647D03*
D60*
X41146810Y-52858990D03*
D61*
X45691781Y-45943149D03*
D62*
X34970100Y-41818689D03*
D25*
X33341023Y-53361159D03*
D63*
X33457367Y-52701337D03*
D25*
X35866793Y-54009606D03*
%TD*%
D64*
X3789999Y-57090001D02*
G75*
G03*
X-10673448Y-47830000I-22363720J-19005078D01*
G01*
X63630000Y-68110000D02*
X74635831Y-44865940D01*
X3789970Y-57090029D02*
G75*
G03*
X7610000Y-58539999I3440030J3305929D01*
G01*
X29900001Y23770000D02*
G75*
G03*
X31110000Y22759999I1209999J219800D01*
G01*
X73670000Y22760000D02*
X31110000Y22760000D01*
X-10673448Y28570000D02*
X-10673448Y-47830000D01*
X-9436896Y29806552D02*
X9530000Y29806552D01*
X12003104Y24750000D02*
X28690000Y24750000D01*
X74960028Y21510000D02*
G75*
G03*
X73670000Y22759999I-1241028J9900D01*
G01*
X74635824Y-44865936D02*
G75*
G03*
X74959999Y-43570000I-2650524J1351536D01*
G01*
X10766552Y28570000D02*
X10766552Y25980000D01*
X15940000Y-57820000D02*
X7610000Y-58540000D01*
X53910000Y-64960000D02*
X61613868Y-68641488D01*
X29900008Y23770002D02*
G75*
G03*
X28690000Y24750000I-1210008J-257002D01*
G01*
X10766583Y25980000D02*
G75*
G03*
X12003104Y24750000I1230017J0D01*
G01*
X-9436896Y29806548D02*
G75*
G03*
X-10673448Y28570000I-4J-1236548D01*
G01*
X10766552Y28570000D02*
G75*
G03*
X9530000Y29806552I-1236552J0D01*
G01*
X74960000Y-43570000D02*
X74960000Y21510000D01*
X61613883Y-68641447D02*
G75*
G03*
X63629999Y-68109999I623117J1726047D01*
G01*
X53910001Y-64959998D02*
G75*
G03*
X15940000Y-57820000I-31697901J-64036302D01*
G01*
D65*
%TO.C,LS1*%
X66735000Y14044500D02*
X57435000Y14044500D01*
X57435000Y14044500D02*
X57435000Y2744500D01*
X57435000Y2744500D02*
X66735000Y2744500D01*
X66735000Y2744500D02*
X66735000Y14044500D01*
%TD*%
M02*
