%TF.GenerationSoftware,KiCad,Pcbnew,(7.0.0-0)*%
%TF.CreationDate,2023-05-01T13:28:00-07:00*%
%TF.ProjectId,cantor-master-key,63616e74-6f72-42d6-9d61-737465722d6b,rev1.0*%
%TF.SameCoordinates,PX78114e0PY44b6550*%
%TF.FileFunction,Profile,NP*%
%FSLAX46Y46*%
G04 Gerber Fmt 4.6, Leading zero omitted, Abs format (unit mm)*
G04 Created by KiCad (PCBNEW (7.0.0-0)) date 2023-05-01 13:28:00*
%MOMM*%
%LPD*%
G01*
G04 APERTURE LIST*
%TA.AperFunction,Profile*%
%ADD10C,0.100000*%
%TD*%
%TA.AperFunction,Profile*%
%ADD11C,0.120000*%
%TD*%
G04 APERTURE END LIST*
D10*
X3789999Y-57090001D02*
G75*
G03*
X-10673448Y-47830000I-22363720J-19005078D01*
G01*
X63630000Y-68110000D02*
X74635831Y-44865940D01*
X3789970Y-57090029D02*
G75*
G03*
X7610000Y-58539999I3440030J3305929D01*
G01*
X29900001Y23770000D02*
G75*
G03*
X31110000Y22759999I1209999J219800D01*
G01*
X73670000Y22760000D02*
X31110000Y22760000D01*
X-10673448Y28570000D02*
X-10673448Y-47830000D01*
X-9436896Y29806552D02*
X9530000Y29806552D01*
X12003104Y24750000D02*
X28690000Y24750000D01*
X74960028Y21510000D02*
G75*
G03*
X73670000Y22759999I-1241028J9900D01*
G01*
X74635824Y-44865936D02*
G75*
G03*
X74959999Y-43570000I-2650524J1351536D01*
G01*
X10766552Y28570000D02*
X10766552Y25980000D01*
X15940000Y-57820000D02*
X7610000Y-58540000D01*
X53910000Y-64960000D02*
X61613868Y-68641488D01*
X29900008Y23770002D02*
G75*
G03*
X28690000Y24750000I-1210008J-257002D01*
G01*
X10766583Y25980000D02*
G75*
G03*
X12003104Y24750000I1230017J0D01*
G01*
X-9436896Y29806548D02*
G75*
G03*
X-10673448Y28570000I-4J-1236548D01*
G01*
X10766552Y28570000D02*
G75*
G03*
X9530000Y29806552I-1236552J0D01*
G01*
X74960000Y-43570000D02*
X74960000Y21510000D01*
X61613883Y-68641447D02*
G75*
G03*
X63629999Y-68109999I623117J1726047D01*
G01*
X53910001Y-64959998D02*
G75*
G03*
X15940000Y-57820000I-31697901J-64036302D01*
G01*
D11*
%TO.C,LS1*%
X66735000Y14044500D02*
X57435000Y14044500D01*
X57435000Y14044500D02*
X57435000Y2744500D01*
X57435000Y2744500D02*
X66735000Y2744500D01*
X66735000Y2744500D02*
X66735000Y14044500D01*
%TD*%
M02*
