M48
; DRILL file {KiCad (7.0.0-0)} date Monday, May 01, 2023 at 01:27:57 PM
; FORMAT={-:-/ absolute / metric / decimal}
; #@! TF.CreationDate,2023-05-01T13:27:57-07:00
; #@! TF.GenerationSoftware,Kicad,Pcbnew,(7.0.0-0)
; #@! TF.FileFunction,NonPlated,1,2,NPTH
FMAT,2
METRIC
; #@! TA.AperFunction,NonPlated,NPTH,ComponentDrill
T1C0.400
; #@! TA.AperFunction,NonPlated,NPTH,ComponentDrill
T2C1.200
; #@! TA.AperFunction,NonPlated,NPTH,ComponentDrill
T3C1.700
; #@! TA.AperFunction,NonPlated,NPTH,ComponentDrill
T4C1.800
; #@! TA.AperFunction,NonPlated,NPTH,ComponentDrill
T5C2.300
; #@! TA.AperFunction,NonPlated,NPTH,ComponentDrill
T6C3.000
; #@! TA.AperFunction,NonPlated,NPTH,ComponentDrill
T7C4.800
; #@! TA.AperFunction,NonPlated,NPTH,ComponentDrill
T8C6.400
%
G90
G05
T2
X66.46Y-34.32
X66.46Y-36.07
X73.46Y-34.32
X73.46Y-36.07
T3
X-5.08Y19.05
X-5.08Y0.0
X-5.08Y-19.05
X5.08Y19.05
X5.08Y0.0
X5.08Y-19.05
X9.839Y-47.593
X13.97Y14.05
X13.97Y-5.0
X13.97Y-24.05
X19.961Y-46.707
X24.13Y14.05
X24.13Y-5.0
X24.13Y-24.05
X31.897Y-47.268
X33.02Y12.05
X33.02Y-7.0
X33.02Y-26.05
X41.903Y-49.032
X43.18Y12.05
X43.18Y-7.0
X43.18Y-26.05
X53.296Y-53.003
X62.504Y-57.297
T4
X-5.5Y19.05
X-5.5Y0.0
X-5.5Y-19.05
X5.5Y19.05
X5.5Y0.0
X5.5Y-19.05
X9.421Y-47.629
X13.55Y14.05
X13.55Y-5.0
X13.55Y-24.05
X20.379Y-46.671
X24.55Y14.05
X24.55Y-5.0
X24.55Y-24.05
X31.484Y-47.195
X32.6Y12.05
X32.6Y-7.0
X32.6Y-26.05
X42.316Y-49.105
X43.6Y12.05
X43.6Y-7.0
X43.6Y-26.05
X52.915Y-52.826
X62.885Y-57.474
T5
X0.0Y15.3
X0.0Y-3.75
X0.0Y-22.8
X15.227Y-50.886
X19.05Y10.3
X19.05Y-8.75
X19.05Y-27.8
X36.249Y-51.843
X38.1Y8.3
X38.1Y-10.75
X38.1Y-29.8
X56.315Y-58.549
T6
X-5.0Y22.75
X-5.0Y3.7
X-5.0Y-15.35
X0.0Y24.95
X0.0Y5.9
X0.0Y-13.15
X5.0Y22.75
X5.0Y3.7
X5.0Y-15.35
X9.597Y-43.9
X14.05Y17.75
X14.05Y-1.3
X14.05Y-20.35
X14.386Y-41.272
X19.05Y19.95
X19.05Y0.9
X19.05Y-18.15
X19.558Y-43.028
X24.05Y17.75
X24.05Y-1.3
X24.05Y-20.35
X32.618Y-43.638
X33.1Y15.75
X33.1Y-3.3
X33.1Y-22.35
X37.925Y-42.34
X38.1Y17.95
X38.1Y-1.1
X38.1Y-20.15
X42.467Y-45.374
X43.1Y15.75
X43.1Y-3.3
X43.1Y-22.35
X54.932Y-49.684
X60.393Y-49.803
X63.995Y-53.91
T7
X0.0Y19.05
X0.0Y0.0
X0.0Y-19.05
X14.9Y-47.15
X19.05Y14.05
X19.05Y-5.0
X19.05Y-24.05
X36.9Y-48.15
X38.1Y12.05
X38.1Y-7.0
X38.1Y-26.05
X57.9Y-55.15
T8
X0.0Y19.05
X0.0Y0.0
X0.0Y-19.05
X14.9Y-47.15
X19.05Y14.05
X19.05Y-5.0
X19.05Y-24.05
X36.9Y-48.15
X38.1Y12.05
X38.1Y-7.0
X38.1Y-26.05
X57.9Y-55.15
T1
X-5.85Y24.6G85X-5.25Y24.6
G05
X-5.85Y13.497G85X-5.25Y13.503
G05
X-5.85Y5.55G85X-5.25Y5.55
G05
X-5.85Y-5.553G85X-5.25Y-5.547
G05
X-5.85Y-13.5G85X-5.25Y-13.5
G05
X-5.85Y-24.603G85X-5.25Y-24.597
G05
X5.25Y24.597G85X5.85Y24.603
G05
X5.25Y13.5G85X5.85Y13.5
G05
X5.25Y5.547G85X5.85Y5.553
G05
X5.25Y-5.55G85X5.85Y-5.55
G05
X5.25Y-13.503G85X5.85Y-13.497
G05
X5.25Y-24.6G85X5.85Y-24.6
G05
X8.589Y-42.131G85X9.186Y-42.079
G05
X9.556Y-53.191G85X10.153Y-53.134
G05
X13.2Y19.6G85X13.8Y19.6
G05
X13.2Y8.497G85X13.8Y8.503
G05
X13.2Y0.55G85X13.8Y0.55
G05
X13.2Y-10.553G85X13.8Y-10.547
G05
X13.2Y-18.5G85X13.8Y-18.5
G05
X13.2Y-29.603G85X13.8Y-29.597
G05
X19.647Y-41.166G85X20.244Y-41.109
G05
X20.614Y-52.221G85X21.211Y-52.169
G05
X24.3Y19.597G85X24.9Y19.603
G05
X24.3Y8.5G85X24.9Y8.5
G05
X24.3Y0.547G85X24.9Y0.553
G05
X24.3Y-10.55G85X24.9Y-10.55
G05
X24.3Y-18.503G85X24.9Y-18.497
G05
X24.3Y-29.6G85X24.9Y-29.6
G05
X30.175Y-52.602G85X30.766Y-52.701
G05
X32.103Y-41.668G85X32.694Y-41.773
G05
X32.25Y17.6G85X32.85Y17.6
G05
X32.25Y6.497G85X32.85Y6.503
G05
X32.25Y-1.45G85X32.85Y-1.45
G05
X32.25Y-12.553G85X32.85Y-12.547
G05
X32.25Y-20.5G85X32.85Y-20.5
G05
X32.25Y-31.603G85X32.85Y-31.597
G05
X41.106Y-54.527G85X41.697Y-54.632
G05
X43.034Y-43.599G85X43.625Y-43.698
G05
X43.35Y17.597G85X43.95Y17.603
G05
X43.35Y6.5G85X43.95Y6.5
G05
X43.35Y-1.453G85X43.95Y-1.447
G05
X43.35Y-12.55G85X43.95Y-12.55
G05
X43.35Y-20.503G85X43.95Y-20.497
G05
X43.35Y-31.6G85X43.95Y-31.6
G05
X50.251Y-57.71G85X50.797Y-57.959
G05
X54.944Y-47.648G85X55.487Y-47.901
G05
X60.313Y-62.399G85X60.856Y-62.652
G05
X65.003Y-52.341G85X65.549Y-52.59
G05
T0
M30
