%TF.GenerationSoftware,KiCad,Pcbnew,(7.0.0-0)*%
%TF.CreationDate,2023-05-01T13:28:00-07:00*%
%TF.ProjectId,cantor-master-key,63616e74-6f72-42d6-9d61-737465722d6b,rev1.0*%
%TF.SameCoordinates,PX78114e0PY44b6550*%
%TF.FileFunction,Paste,Bot*%
%TF.FilePolarity,Positive*%
%FSLAX46Y46*%
G04 Gerber Fmt 4.6, Leading zero omitted, Abs format (unit mm)*
G04 Created by KiCad (PCBNEW (7.0.0-0)) date 2023-05-01 13:28:00*
%MOMM*%
%LPD*%
G01*
G04 APERTURE LIST*
G04 Aperture macros list*
%AMFreePoly0*
4,1,13,-1.000000,1.100000,0.760000,1.100000,0.851844,1.081731,0.929706,1.029706,0.981731,0.951844,1.000000,0.860000,1.000000,-0.860000,0.981731,-0.951844,0.929706,-1.029706,0.851844,-1.081731,0.760000,-1.100000,-1.000000,-1.100000,-1.000000,1.100000,-1.000000,1.100000,$1*%
%AMFreePoly1*
4,1,18,-1.000000,0.860000,-0.981731,0.951844,-0.929706,1.029706,-0.851844,1.081731,-0.760000,1.100000,0.760000,1.100000,0.851844,1.081731,0.929706,1.029706,0.981731,0.951844,1.000000,0.860000,1.000000,-0.860000,0.981731,-0.951844,0.929706,-1.029706,0.851844,-1.081731,0.760000,-1.100000,-0.500000,-1.100000,-1.000000,-0.600000,-1.000000,0.860000,-1.000000,0.860000,$1*%
G04 Aperture macros list end*
%ADD10FreePoly0,0.000000*%
%ADD11FreePoly1,0.000000*%
%ADD12FreePoly0,5.000000*%
%ADD13FreePoly1,5.000000*%
%ADD14R,1.955800X2.311400*%
%ADD15FreePoly0,335.000000*%
%ADD16FreePoly1,335.000000*%
%ADD17FreePoly0,350.000000*%
%ADD18FreePoly1,350.000000*%
%TA.AperFunction,Profile*%
%ADD19C,0.100000*%
%TD*%
%TA.AperFunction,Profile*%
%ADD20C,0.120000*%
%TD*%
G04 APERTURE END LIST*
D10*
%TO.C,K25*%
X46374999Y-22349999D03*
D11*
X35099999Y-20149999D03*
%TD*%
D10*
%TO.C,K24*%
X27324999Y-20349999D03*
D11*
X16049999Y-18149999D03*
%TD*%
D10*
%TO.C,K04*%
X27324999Y17749999D03*
D11*
X16049999Y19949999D03*
%TD*%
D12*
%TO.C,K30*%
X22821034Y-42742865D03*
D13*
X11397196Y-41533918D03*
%TD*%
D10*
%TO.C,K14*%
X27324999Y-1299999D03*
D11*
X16049999Y899999D03*
%TD*%
D10*
%TO.C,K23*%
X8274999Y-15349999D03*
D11*
X-2999999Y-13149999D03*
%TD*%
D10*
%TO.C,K03*%
X8274999Y22749999D03*
D11*
X-2999999Y24949999D03*
%TD*%
D14*
%TO.C,LS1*%
X62084999Y15188999D03*
X62084999Y1599999D03*
%TD*%
D10*
%TO.C,K15*%
X46374999Y-3299999D03*
D11*
X35099999Y-1099999D03*
%TD*%
D15*
%TO.C,K32*%
X66963384Y-55293826D03*
D16*
X57674523Y-48534928D03*
%TD*%
D10*
%TO.C,K05*%
X46374999Y15749999D03*
D11*
X35099999Y17949999D03*
%TD*%
D10*
%TO.C,K13*%
X8274999Y3699999D03*
D11*
X-2999999Y5899999D03*
%TD*%
D17*
%TO.C,K31*%
X45691781Y-45943149D03*
D18*
X34970100Y-41818689D03*
%TD*%
D19*
X3789999Y-57090001D02*
G75*
G03*
X-10673448Y-47830000I-22363720J-19005078D01*
G01*
X63630000Y-68110000D02*
X74635831Y-44865940D01*
X3789970Y-57090029D02*
G75*
G03*
X7610000Y-58539999I3440030J3305929D01*
G01*
X29900001Y23770000D02*
G75*
G03*
X31110000Y22759999I1209999J219800D01*
G01*
X73670000Y22760000D02*
X31110000Y22760000D01*
X-10673448Y28570000D02*
X-10673448Y-47830000D01*
X-9436896Y29806552D02*
X9530000Y29806552D01*
X12003104Y24750000D02*
X28690000Y24750000D01*
X74960028Y21510000D02*
G75*
G03*
X73670000Y22759999I-1241028J9900D01*
G01*
X74635824Y-44865936D02*
G75*
G03*
X74959999Y-43570000I-2650524J1351536D01*
G01*
X10766552Y28570000D02*
X10766552Y25980000D01*
X15940000Y-57820000D02*
X7610000Y-58540000D01*
X53910000Y-64960000D02*
X61613868Y-68641488D01*
X29900008Y23770002D02*
G75*
G03*
X28690000Y24750000I-1210008J-257002D01*
G01*
X10766583Y25980000D02*
G75*
G03*
X12003104Y24750000I1230017J0D01*
G01*
X-9436896Y29806548D02*
G75*
G03*
X-10673448Y28570000I-4J-1236548D01*
G01*
X10766552Y28570000D02*
G75*
G03*
X9530000Y29806552I-1236552J0D01*
G01*
X74960000Y-43570000D02*
X74960000Y21510000D01*
X61613883Y-68641447D02*
G75*
G03*
X63629999Y-68109999I623117J1726047D01*
G01*
X53910001Y-64959998D02*
G75*
G03*
X15940000Y-57820000I-31697901J-64036302D01*
G01*
D20*
%TO.C,LS1*%
X66735000Y14044500D02*
X57435000Y14044500D01*
X57435000Y14044500D02*
X57435000Y2744500D01*
X57435000Y2744500D02*
X66735000Y2744500D01*
X66735000Y2744500D02*
X66735000Y14044500D01*
%TD*%
M02*
